<svg xmlns="http://www.w3.org/2000/svg" version="1.1" xmlns:xlink="http://www.w3.org/1999/xlink" xmlns:svgjs="http://svgjs.com/svgjs" width="1920" height="1080" preserveAspectRatio="none" viewBox="0 0 1920 1080"><g mask="url(&quot;#SvgjsMask1001&quot;)" fill="none"><rect width="1920" height="1080" x="0" y="0" fill="rgba(203, 110, 147, 1)"></rect><path d="M0,831.883C153.97,809.601,297.731,750.456,422.999,658.2C542.615,570.106,635.671,453.614,697.215,318.407C758.703,183.322,789.068,36.401,773.203,-111.17C756.961,-262.255,715.777,-419.948,606.488,-525.525C500.192,-628.21,341.814,-642.706,196.286,-668.488C64.849,-691.774,-63.588,-684.143,-196.056,-667.706C-353.396,-648.182,-533.874,-671.119,-650.25,-563.445C-768.065,-454.439,-802.072,-274.521,-794.292,-114.202C-787.137,33.239,-653.572,137.454,-609.403,278.305C-556.015,448.555,-641.818,673.213,-509.748,793.184C-381.007,910.132,-172.135,856.794,0,831.883" fill="#bf4b79"></path><path d="M1920 1559.636C2022.026 1559.657 2131.101 1596.9560000000001 2219.577 1546.15 2308.9700000000003 1494.817 2336.465 1383.281 2385.249 1292.472 2437.673 1194.888 2530.255 1104.161 2516.0370000000003 994.303 2501.807 884.352 2387.671 821.438 2313.608 738.937 2241.034 658.095 2192.4610000000002 536.084 2085.864 515.118 1979.06 494.111 1894.18 605.71 1789.592 635.8720000000001 1684.254 666.25 1557.813 623.4639999999999 1472.296 692.063 1384.17 762.755 1327.2240000000002 884.333 1339.9070000000002 996.595 1352.307 1106.355 1485.701 1157.022 1535.94 1255.394 1582.778 1347.107 1539.781 1482.08 1620.503 1546.026 1700.4569999999999 1609.363 1817.999 1559.615 1920 1559.636" fill="#d791ad"></path></g><defs><mask id="SvgjsMask1001"><rect width="1920" height="1080" fill="#ffffff"></rect></mask></defs></svg>